<svg width="1442" height="800" viewBox="0 0 1442 800" fill="none" xmlns="http://www.w3.org/2000/svg">
<mask id="mask0_1001_2895" style="mask-type:alpha" maskUnits="userSpaceOnUse" x="0" y="0" width="1442" height="800">
<path fill-rule="evenodd" clip-rule="evenodd" d="M1442 529.4C1394.97 528.361 1341.3 531.431 1280.2 541.026C1153.97 560.853 999.382 608.037 839.686 656.78C612.391 726.156 374.748 798.691 193.781 800H183.919C111.707 799.468 48.9301 787.106 0 758.021V0H1442V529.4Z" fill="url(#paint0_linear_1001_2895)"/>
</mask>
<g mask="url(#mask0_1001_2895)">
<path fill-rule="evenodd" clip-rule="evenodd" d="M1442 529.419C1394.76 528.324 1340.81 531.372 1279.35 541.026C1153.11 560.853 998.524 608.037 838.828 656.78C611.531 726.156 373.887 798.691 192.919 800H183.064C110.85 799.468 48.0724 787.107 -0.858398 758.021V0H1442V529.419Z" fill="url(#paint1_linear_1001_2895)"/>
<g opacity="0.7" filter="url(#filter0_f_1001_2895)">
<circle cx="1540.5" cy="876.5" r="658.5" fill="#FF5721"/>
</g>
<g filter="url(#filter1_f_1001_2895)">
<circle cx="863.5" cy="1044.5" r="476.5" fill="#7A83FE"/>
</g>
</g>
<defs>
<filter id="filter0_f_1001_2895" x="510" y="-154" width="2061" height="2061" filterUnits="userSpaceOnUse" color-interpolation-filters="sRGB">
<feFlood flood-opacity="0" result="BackgroundImageFix"/>
<feBlend mode="normal" in="SourceGraphic" in2="BackgroundImageFix" result="shape"/>
<feGaussianBlur stdDeviation="186" result="effect1_foregroundBlur_1001_2895"/>
</filter>
<filter id="filter1_f_1001_2895" x="15" y="196" width="1697" height="1697" filterUnits="userSpaceOnUse" color-interpolation-filters="sRGB">
<feFlood flood-opacity="0" result="BackgroundImageFix"/>
<feBlend mode="normal" in="SourceGraphic" in2="BackgroundImageFix" result="shape"/>
<feGaussianBlur stdDeviation="186" result="effect1_foregroundBlur_1001_2895"/>
</filter>
<linearGradient id="paint0_linear_1001_2895" x1="233.467" y1="116.41" x2="233.467" y2="782.051" gradientUnits="userSpaceOnUse">
<stop offset="0.00418257" stop-color="#24233F"/>
<stop offset="1" stop-color="#39386C"/>
</linearGradient>
<linearGradient id="paint1_linear_1001_2895" x1="1242.44" y1="326.667" x2="-7.36673" y2="639.093" gradientUnits="userSpaceOnUse">
<stop stop-color="#4D4B8E"/>
<stop offset="1" stop-color="#24233F"/>
</linearGradient>
</defs>
</svg>
